<?xml version="1.0" encoding="utf-8"?>
<!-- Generator: Adobe Illustrator 24.0.3, SVG Export Plug-In . SVG Version: 6.00 Build 0)  -->
<svg version="1.1" id="Layer_1" xmlns="http://www.w3.org/2000/svg" xmlns:xlink="http://www.w3.org/1999/xlink" x="0px" y="0px"
	 viewBox="0 0 596.57 147" style="enable-background:new 0 0 596.57 147;" xml:space="preserve">
<style type="text/css">
	.st0{fill:#282F4B;}
</style>
<path class="st0" d="M110.31,0H36.69C16.43,0,0,16.43,0,36.69v73.62C0,130.57,16.43,147,36.69,147h73.62
	c20.26,0,36.69-16.43,36.69-36.69V36.69C147,16.43,130.57,0,110.31,0z M37.79,53.03l13.5,0.81c0.83,0.05,1.3,0.98,0.84,1.67
	L44.68,66.8c-0.46,0.69-1.5,0.63-1.87-0.11l-6.05-12.1C36.39,53.85,36.96,52.98,37.79,53.03z M110.69,104.86H37.05
	c-4.53,0-7.36-4.9-5.09-8.82L46.76,70.4l69.04,31.49C114.82,103.62,112.97,104.86,110.69,104.86z M116.34,100.61L56.32,53.84
	l12.46-21.57c2.26-3.92,7.92-3.92,10.19,0l36.82,63.77C116.64,97.53,116.76,99.16,116.34,100.61z"/>
<g>
	<g>
		<path class="st0" d="M225.53,91.5l-8.98,25.26h-12.96l31.07-88.03h16.17l32.41,88.03h-13.87l-9.29-25.26H225.53z M256.89,80.44
			c-7.99-22.27-12.48-34.49-14.43-41.42h-0.13c-2.15,7.7-7.17,22.38-13.6,41.42H256.89z"/>
		<path class="st0" d="M286.83,119.25h-19.2L258.35,94h-31.06l-8.98,25.26h-18.26l32.84-93.03h19.69L286.83,119.25z M271.12,114.25
			h8.54L249.1,31.23h-12.66l-29.31,83.03h7.66L223.76,89h38.07L271.12,114.25z M260.44,82.94h-35.18l3.1-9.19
			c5.4-15.97,9.66-28.59,11.57-35.41l0.51-1.83h3.92l0.51,1.82c1.61,5.74,5.07,15.36,10.8,31.31L260.44,82.94z M232.22,77.94h21.11
			l-2.37-6.6c-3.78-10.51-6.57-18.29-8.52-24.07c-2.27,7.13-5.52,16.77-9.35,28.08L232.22,77.94z"/>
	</g>
	<g>
		<path class="st0" d="M283.61,47.23h10.92V28.8h12.44v18.43h13.93v9.93h-13.93V98.8c0,6,1.52,8.96,7.26,8.96
			c1.44,0,3.64-0.07,5.32-0.47v9.15c-2.9,1.06-6.92,1.2-10.1,1.2c-10.53,0-14.92-5.5-14.92-16.33V57.16h-10.92V47.23z"/>
		<path class="st0" d="M309.45,120.14c-11.56,0-17.42-6.33-17.42-18.83V59.66h-10.92V44.73h10.92V26.3h17.44v18.43h13.93v14.93
			h-13.93V98.8c0,5.85,1.45,6.46,4.76,6.46c2,0,3.64-0.14,4.74-0.4l3.08-0.74v14.07l-1.64,0.6
			C317.13,119.99,312.83,120.14,309.45,120.14z M286.11,54.66h10.92v46.65c0,9.82,3.6,13.83,12.42,13.83c2.2,0,5.19-0.07,7.6-0.59
			v-4.38c-0.86,0.06-1.8,0.1-2.82,0.1c-8.65,0-9.76-6.13-9.76-11.46V54.66h13.93v-4.93h-13.93V31.3h-7.44v18.43h-10.92V54.66z"/>
	</g>
	<g>
		<path class="st0" d="M412.93,86.87c0.07,12.14,6.18,21.19,16.73,21.19c9.67,0,12.74-4.82,14.74-9.38h12.51
			c-2.49,8.19-9.44,19.6-27.62,19.6c-20.47,0-28.93-16.37-28.93-33.04c0-19.39,9.8-34.52,29.63-34.52
			c21.07,0,28.03,16.57,28.03,30.79c0,2,0,3.61-0.18,5.37H412.93z M445.45,78.41c-0.13-10.01-5.01-18.11-15.59-18.11
			c-10.81,0-15.5,7.51-16.55,18.11H445.45z"/>
		<path class="st0" d="M429.29,120.77c-10.22,0-18.56-3.89-24.14-11.26c-4.7-6.22-7.29-14.84-7.29-24.28
			c0-22.83,12.31-37.02,32.13-37.02c22.54,0,30.53,17.93,30.53,33.29c0,2,0,3.74-0.2,5.63l-0.23,2.24h-44.56
			c0.82,9.92,6.19,16.19,14.12,16.19c8.31,0,10.7-3.89,12.45-7.88l0.66-1.5h17.52l-0.98,3.23
			C456.88,107.38,449.75,120.77,429.29,120.77z M430,53.21c-16.99,0-27.13,11.97-27.13,32.02c0,22.52,13.65,30.54,26.43,30.54
			c14.24,0,20.93-7.34,24.05-14.6h-7.35c-2.43,4.85-6.52,9.38-16.33,9.38c-11.42,0-19.15-9.51-19.23-23.67l-0.01-2.51h45.08
			c0.03-0.89,0.03-1.82,0.03-2.87C455.53,67.82,448.82,53.21,430,53.21z M447.98,80.91h-37.43l0.27-2.75
			c1.67-16.83,11.27-20.37,19.03-20.37c11,0,17.93,7.89,18.09,20.58L447.98,80.91z M416.17,75.91h26.62
			c-0.57-5.26-3.08-13.11-12.94-13.11C422.21,62.8,417.71,67.09,416.17,75.91z"/>
	</g>
	<g>
		<path class="st0" d="M472.02,68.49c0-5.58,0-11.3-0.13-16.26h12.08c0.31,1.85,0.5,8.19,0.48,10.14c2.5-5.25,7.75-11.66,20-11.66
			c12.26,0,21.52,7.66,21.52,24.63v41.41h-12.44V76.88c0-9.26-3.54-15.58-13.01-15.58c-11.28,0-16.07,8.29-16.07,20.95v34.51h-12.44
			V68.49z"/>
		<path class="st0" d="M528.49,119.25h-17.44V76.88c0-11.72-6-13.08-10.51-13.08c-9.01,0-13.57,6.21-13.57,18.45v37.01h-17.44V68.49
			c0-5.54,0-11.27-0.12-16.19l-0.07-2.56h16.76l0.35,2.09c0.11,0.66,0.2,1.75,0.28,2.98c4.33-4.34,10.34-6.59,17.74-6.59
			c15.04,0,24.02,10.14,24.02,27.13V119.25z M516.05,114.25h7.44V75.34c0-14.07-6.93-22.13-19.02-22.13
			c-8.66,0-14.47,3.35-17.75,10.24l-4.83,10.14l0.07-11.23c0.01-1.58-0.1-5.19-0.25-7.62h-7.26c0.07,4.35,0.07,9.12,0.07,13.76
			v45.76h7.44V82.25c0-15.12,6.6-23.45,18.57-23.45c13.49,0,15.51,11.33,15.51,18.08V114.25z"/>
	</g>
	<g>
		<path class="st0" d="M592.69,102.18c0,5.92,0.51,12.78,0.89,14.57h-11.9c-0.51-1.41-0.89-4.54-1.03-8.03
			c-2.27,4.17-7.27,9.55-19.58,9.55c-15.28,0-21.79-9.97-21.79-19.82c0-14.46,11.41-21.08,30.53-21.08c4.23,0,8.3,0,10.66,0v-5.2
			c0-5.47-1.79-11.95-13.12-11.95c-10.15,0-11.94,4.93-13.04,9.9h-11.98c0.88-9.39,6.68-19.47,25.44-19.41
			c16.06,0.06,24.92,6.54,24.92,21.35V102.18z M580.54,85.7c-1.95,0-6.57,0-9.83,0c-12.46,0-18.78,3.5-18.78,12.04
			c0,6.31,4.26,11.02,11.93,11.02c14.72,0,16.68-9.97,16.68-21.06V85.7z"/>
		<path class="st0" d="M561.07,120.77c-16.78,0-24.29-11.21-24.29-22.32c0-20.52,20.7-23.58,33.03-23.58h8.16v-2.7
			c0-8.3-5.11-9.45-10.62-9.45c-8.2,0-9.57,3.29-10.6,7.94l-0.44,1.96h-16.73l0.25-2.73c0.56-6.05,2.91-11.18,6.79-14.84
			c4.81-4.54,11.87-6.85,20.98-6.85c0.06,0,0.11,0,0.17,0c18.19,0.07,27.41,8.09,27.41,23.85v30.12c0,5.77,0.5,12.51,0.83,14.06
			l0.64,3.02h-16.74l-0.6-1.65c-0.24-0.67-0.43-1.52-0.59-2.45C574.55,118.89,568.64,120.77,561.07,120.77z M569.82,79.87
			c-18.6,0-28.03,6.25-28.03,18.58c0,12.78,10.39,17.32,19.29,17.32c8.55,0,14.4-2.77,17.38-8.25l4.33-7.96l0.36,9.06
			c0.09,2.39,0.29,4.31,0.51,5.63h7.08c-0.3-3.15-0.55-7.87-0.55-12.07V72.06c0-12.8-7.13-18.79-22.43-18.85c-0.05,0-0.1,0-0.15,0
			c-15.5,0-20.85,7.31-22.37,14.41h7.14c1.57-5.36,4.91-9.9,14.98-9.9c7.13,0,15.62,2.51,15.62,14.45v7.7H569.82z M563.86,111.26
			c-8.63,0-14.43-5.43-14.43-13.52c0-14.54,16.02-14.54,21.28-14.54h12.33v4.49C583.04,99.35,580.76,111.26,563.86,111.26z
			 M570.72,88.2c-14.35,0-16.28,4.82-16.28,9.54c0,5.33,3.52,8.52,9.43,8.52c11.69,0,14.12-6.61,14.18-18.06H570.72z"/>
	</g>
	<g>
		<path class="st0" d="M364.57,50.71c-10.87,0-16.61,5.29-19.82,10.67V28.8h-12.44v87.95h12.44V81.68c0-12.77,4.52-20.38,15.8-20.38
			c9.02,0,13.34,5.77,13.34,16.25v39.21h12.38V75.53C386.28,56.66,375.24,50.71,364.57,50.71z"/>
		<path class="st0" d="M388.78,119.25h-17.38V77.54c0-12.32-6.19-13.75-10.84-13.75c-11.79,0-13.3,9.56-13.3,17.88v37.57h-17.44
			V26.3h17.44v28.02c4.45-4.06,10.24-6.11,17.32-6.11c5.68,0,24.21,1.97,24.21,27.32V119.25z M376.39,114.25h7.38V75.53
			c0-19.42-12.03-22.32-19.21-22.32c-8.1,0-13.88,3.09-17.67,9.45l-4.65,7.81V31.3h-7.44v82.95h7.44V81.68
			c0-10.44,3.17-22.88,18.3-22.88c5.92,0,15.84,2.44,15.84,18.75V114.25z"/>
	</g>
</g>
</svg>
